<svg width="130" height="70" viewBox="0 0 130 70" fill="none" xmlns="http://www.w3.org/2000/svg">
<path d="M82.118 60.0525C81.4854 60.0525 80.886 59.9775 80.3199 59.8277C79.7705 59.6778 79.2627 59.4781 78.7965 59.2283C78.347 58.9619 77.9474 58.6706 77.5978 58.3542C77.2481 58.0379 76.9734 57.7216 76.7736 57.4052C76.5905 57.1389 76.474 56.9224 76.424 56.7559C76.3741 56.5728 76.3824 56.398 76.449 56.2315C76.5322 56.065 76.6904 55.8818 76.9235 55.6821C77.1899 55.4823 77.423 55.3907 77.6228 55.4073C77.8225 55.4073 78.0057 55.4823 78.1722 55.6321C78.3553 55.7819 78.5385 55.9817 78.7216 56.2315C79.1378 56.7975 79.6456 57.2138 80.245 57.4802C80.8444 57.7299 81.4354 57.8548 82.0181 57.8548C82.7673 57.8548 83.4333 57.7549 84.016 57.5551C84.5987 57.3553 85.0566 57.0556 85.3896 56.656C85.7392 56.2398 85.914 55.707 85.914 55.0577C85.914 54.5249 85.7808 54.0754 85.5144 53.7091C85.2481 53.3429 84.8901 53.0348 84.4406 52.7851C83.991 52.5187 83.4916 52.294 82.9422 52.1108C82.3927 51.911 81.835 51.7196 81.2689 51.5364C80.8194 51.3866 80.3782 51.2201 79.9453 51.0369C79.5124 50.8372 79.1045 50.6207 78.7216 50.3876C78.3387 50.1379 77.9974 49.8465 77.6977 49.5136C77.4146 49.1806 77.1899 48.7893 77.0234 48.3398C76.8735 47.8903 76.7986 47.3658 76.7986 46.7664C76.7986 45.8507 77.0151 45.0433 77.4479 44.344C77.8975 43.6447 78.5218 43.1036 79.321 42.7207C80.1201 42.3211 81.0441 42.1213 82.093 42.1213C82.7091 42.1213 83.2751 42.1796 83.7913 42.2962C84.3074 42.4127 84.7652 42.5709 85.1648 42.7707C85.5644 42.9538 85.9057 43.1536 86.1887 43.37C86.4718 43.5698 86.6882 43.7613 86.838 43.9444C87.1377 44.2608 87.3042 44.5271 87.3375 44.7436C87.3708 44.96 87.246 45.2264 86.9629 45.5427C86.6965 45.8424 86.4385 46.0006 86.1887 46.0172C85.939 46.0339 85.6643 45.9173 85.3646 45.6676C85.0483 45.3013 84.7153 45.0183 84.3657 44.8185C84.0327 44.6187 83.6747 44.4855 83.2918 44.4189C82.9255 44.3357 82.5176 44.294 82.0681 44.294C81.6352 44.294 81.2273 44.3523 80.8444 44.4689C80.4781 44.5688 80.1534 44.7269 79.8704 44.9434C79.604 45.1598 79.3959 45.4262 79.246 45.7425C79.0962 46.0422 79.0213 46.3918 79.0213 46.7914C79.0213 47.2409 79.1378 47.6239 79.3709 47.9402C79.6206 48.2565 79.9453 48.5313 80.3449 48.7643C80.7445 48.9808 81.194 49.1806 81.6935 49.3637C82.1929 49.5302 82.7174 49.6967 83.2668 49.8632C83.8662 50.0463 84.4572 50.2711 85.0399 50.5375C85.6227 50.7872 86.1471 51.1035 86.6133 51.4865C87.0795 51.8528 87.4541 52.3189 87.7371 52.885C88.0201 53.4511 88.1617 54.1503 88.1617 54.9828C88.1617 55.8152 87.9952 56.5478 87.6622 57.1805C87.3458 57.8131 86.9046 58.3459 86.3386 58.7788C85.7725 59.195 85.1232 59.5114 84.3906 59.7278C83.6747 59.9442 82.9172 60.0525 82.118 60.0525Z" fill="#063855"/>
<path d="M91.6757 59.8027C91.3594 59.8027 91.118 59.7528 90.9515 59.6529C90.785 59.5696 90.6768 59.4448 90.6268 59.2783C90.5935 59.0951 90.5769 58.887 90.5769 58.6539V43.2701C90.5769 43.037 90.6019 42.8373 90.6518 42.6708C90.7018 42.5043 90.81 42.3794 90.9765 42.2962C91.143 42.1963 91.3844 42.1463 91.7007 42.1463C92.0337 42.1463 92.2751 42.1963 92.4249 42.2962C92.5914 42.3794 92.6913 42.5043 92.7246 42.6708C92.7746 42.8373 92.7995 43.0454 92.7995 43.2951V49.4636C93.1991 48.9974 93.6819 48.5812 94.248 48.2149C94.8307 47.8486 95.5383 47.6655 96.3708 47.6655C97.3531 47.6655 98.2272 47.8986 98.993 48.3648C99.7755 48.8143 100.392 49.4553 100.841 50.2877C101.307 51.1202 101.54 52.1108 101.54 53.2596V58.6789C101.54 58.912 101.515 59.1118 101.465 59.2783C101.415 59.4448 101.316 59.5696 101.166 59.6529C101.016 59.7528 100.774 59.8027 100.441 59.8027C100.125 59.8027 99.8837 59.7528 99.7173 59.6529C99.5508 59.5696 99.4425 59.4448 99.3926 59.2783C99.3426 59.0951 99.3177 58.887 99.3177 58.6539V53.2346C99.3177 52.5354 99.2011 51.9277 98.968 51.4116C98.735 50.8954 98.3853 50.4958 97.9191 50.2128C97.4696 49.9298 96.8952 49.7883 96.196 49.7883C95.247 49.7883 94.4645 50.063 93.8484 50.6124C93.2491 51.1452 92.8994 51.8611 92.7995 52.7601V58.6789C92.7995 58.912 92.7746 59.1118 92.7246 59.2783C92.6747 59.4448 92.5665 59.5696 92.4 59.6529C92.2501 59.7528 92.0087 59.8027 91.6757 59.8027Z" fill="#063855"/>
<path d="M109.415 59.9526C108.599 59.9526 107.817 59.7944 107.068 59.4781C106.335 59.1617 105.677 58.7288 105.095 58.1794C104.512 57.6134 104.054 56.9557 103.721 56.2065C103.388 55.4573 103.222 54.6415 103.222 53.7591C103.222 52.8933 103.38 52.0942 103.696 51.3616C104.012 50.6124 104.454 49.9548 105.02 49.3887C105.586 48.8226 106.235 48.3814 106.968 48.0651C107.717 47.7321 108.516 47.5656 109.365 47.5656C110.514 47.5656 111.546 47.8403 112.462 48.3897C113.394 48.9225 114.135 49.6551 114.685 50.5874C115.234 51.5198 115.509 52.5687 115.509 53.7341C115.509 54.6498 115.342 55.4906 115.009 56.2564C114.676 57.0057 114.227 57.655 113.661 58.2044C113.095 58.7538 112.445 59.1867 111.713 59.503C110.98 59.8027 110.214 59.9526 109.415 59.9526ZM109.365 57.7798C110.064 57.7798 110.714 57.605 111.313 57.2554C111.912 56.9058 112.395 56.4229 112.762 55.8069C113.128 55.1909 113.311 54.4916 113.311 53.7091C113.311 52.9266 113.136 52.2357 112.787 51.6363C112.454 51.0369 111.987 50.5708 111.388 50.2378C110.789 49.9048 110.106 49.7383 109.34 49.7383C108.608 49.7383 107.942 49.9131 107.342 50.2628C106.76 50.6124 106.285 51.0869 105.919 51.6863C105.569 52.2856 105.394 52.9682 105.394 53.7341C105.394 54.5333 105.577 55.2409 105.944 55.8569C106.31 56.4562 106.793 56.9307 107.392 57.2804C108.008 57.6134 108.666 57.7798 109.365 57.7798Z" fill="#063855"/>
<path d="M124.039 59.7028C123.223 59.7028 122.482 59.553 121.816 59.2533C121.15 58.9536 120.584 58.5374 120.118 58.0046C119.652 57.4552 119.286 56.8142 119.019 56.0816C118.769 55.3491 118.653 54.5416 118.67 53.6592C118.67 52.7934 118.794 51.9943 119.044 51.2617C119.294 50.5291 119.652 49.8965 120.118 49.3637C120.601 48.8143 121.167 48.3981 121.816 48.115C122.482 47.8153 123.223 47.6655 124.039 47.6655C124.805 47.6655 125.521 47.8153 126.187 48.115C126.869 48.4147 127.46 48.8393 127.96 49.3887C128.476 49.9215 128.875 50.5624 129.159 51.3117C129.458 52.0609 129.608 52.8684 129.608 53.7341C129.608 54.5999 129.458 55.399 129.159 56.1316C128.875 56.8641 128.476 57.4968 127.96 58.0296C127.46 58.5624 126.869 58.9786 126.187 59.2783C125.521 59.5613 124.805 59.7028 124.039 59.7028ZM118.844 64.7225C118.528 64.7225 118.287 64.6726 118.12 64.5727C117.97 64.4894 117.862 64.3646 117.795 64.1981C117.746 64.0316 117.721 63.8318 117.721 63.5987V48.8393C117.721 48.6062 117.746 48.4064 117.795 48.2399C117.845 48.0734 117.945 47.9485 118.095 47.8653C118.262 47.7654 118.503 47.7154 118.819 47.7154C119.186 47.7154 119.452 47.7737 119.619 47.8903C119.802 48.0068 119.91 48.2149 119.943 48.5146V63.5737C119.96 63.8068 119.943 64.0066 119.893 64.1731C119.843 64.3562 119.735 64.4894 119.569 64.5727C119.419 64.6726 119.177 64.7225 118.844 64.7225ZM123.714 57.655C124.414 57.655 125.046 57.4885 125.612 57.1555C126.178 56.8059 126.62 56.3314 126.936 55.732C127.269 55.1326 127.435 54.45 127.435 53.6842C127.435 52.9016 127.269 52.219 126.936 51.6363C126.62 51.0536 126.178 50.6041 125.612 50.2877C125.063 49.9548 124.43 49.7883 123.714 49.7883C123.015 49.7883 122.382 49.9548 121.816 50.2877C121.267 50.6207 120.826 51.0786 120.493 51.6613C120.176 52.244 120.018 52.9183 120.018 53.6842C120.018 54.45 120.176 55.1326 120.493 55.732C120.826 56.3314 121.267 56.8059 121.816 57.1555C122.382 57.4885 123.015 57.655 123.714 57.655Z" fill="#063855"/>
<path d="M78.4257 35.9383C77.7344 35.9383 77.151 35.7115 76.6757 35.2578C76.2004 34.7824 75.9628 34.1775 75.9628 33.4429C75.9628 33.1837 75.9952 32.946 76.06 32.73C76.1248 32.5139 76.2112 32.3411 76.3192 32.2115L86.3007 18.017H78.5554C78.1449 18.017 77.7344 17.9846 77.3239 17.9198C76.935 17.855 76.6109 17.6606 76.3517 17.3365C76.0924 16.9908 75.9628 16.4399 75.9628 15.6837C75.9628 14.8627 76.0816 14.2902 76.3192 13.9661C76.5569 13.6205 76.8702 13.4044 77.2591 13.318C77.6479 13.2316 78.0476 13.1884 78.4581 13.1884H90.9674C91.6587 13.1884 92.2312 13.4368 92.685 13.9337C93.1603 14.409 93.3979 14.9924 93.3979 15.6837C93.3979 15.9646 93.3655 16.2238 93.3007 16.4615C93.2359 16.6775 93.1387 16.872 93.009 17.0448L83.0924 31.142H91.4211C91.8532 31.142 92.2529 31.1852 92.6201 31.2717C92.9874 31.3365 93.2791 31.5417 93.4951 31.8874C93.7328 32.2115 93.8516 32.7408 93.8516 33.4753C93.8516 34.2747 93.7328 34.8473 93.4951 35.1929C93.2575 35.5386 92.955 35.7439 92.5877 35.8087C92.2204 35.8951 91.81 35.9383 91.3563 35.9383H78.4257Z" fill="#063855"/>
<path d="M103.569 36.1328C102.553 36.1328 101.538 35.9383 100.522 35.5494C99.5286 35.1389 98.6212 34.5664 97.8002 33.8318C96.9793 33.0973 96.3311 32.2223 95.8558 31.2068C95.3805 30.1698 95.1428 29.0247 95.1428 27.7717C95.1428 26.605 95.3589 25.5247 95.791 24.5309C96.2231 23.5155 96.828 22.6189 97.6058 21.8411C98.3836 21.0633 99.2694 20.4584 100.263 20.0263C101.279 19.5726 102.359 19.3457 103.504 19.3457C105.059 19.3457 106.464 19.7238 107.717 20.48C108.992 21.2146 110.007 22.2192 110.763 23.4939C111.519 24.7686 111.897 26.1837 111.897 27.7393C111.897 29.0571 111.649 30.2346 111.152 31.2717C110.677 32.2871 110.029 33.1621 109.208 33.8966C108.408 34.6312 107.512 35.1929 106.518 35.5818C105.546 35.9491 104.563 36.1328 103.569 36.1328ZM103.504 31.2392C104.022 31.2392 104.552 31.1096 105.092 30.8504C105.632 30.5911 106.086 30.2022 106.453 29.6837C106.82 29.1652 107.004 28.5062 107.004 27.7068C107.004 27.0155 106.853 26.4106 106.55 25.892C106.248 25.3735 105.826 24.9738 105.286 24.693C104.768 24.3905 104.163 24.2393 103.472 24.2393C102.823 24.2393 102.24 24.3905 101.722 24.693C101.225 24.9954 100.814 25.4167 100.49 25.9568C100.188 26.4754 100.036 27.0695 100.036 27.7393C100.036 28.517 100.209 29.176 100.555 29.7161C100.922 30.2346 101.376 30.6235 101.916 30.8828C102.456 31.1204 102.985 31.2392 103.504 31.2392Z" fill="#063855"/>
<path d="M121.671 36.1328C120.656 36.1328 119.64 35.9383 118.625 35.5494C117.631 35.1389 116.724 34.5664 115.903 33.8318C115.082 33.0973 114.434 32.2223 113.958 31.2068C113.483 30.1698 113.245 29.0247 113.245 27.7717C113.245 26.605 113.461 25.5247 113.894 24.5309C114.326 23.5155 114.931 22.6189 115.708 21.8411C116.486 21.0633 117.372 20.4584 118.366 20.0263C119.381 19.5726 120.461 19.3457 121.606 19.3457C123.162 19.3457 124.566 19.7238 125.819 20.48C127.094 21.2146 128.11 22.2192 128.866 23.4939C129.622 24.7686 130 26.1837 130 27.7393C130 29.0571 129.752 30.2346 129.255 31.2717C128.779 32.2871 128.131 33.1621 127.31 33.8966C126.511 34.6312 125.614 35.1929 124.62 35.5818C123.648 35.9491 122.665 36.1328 121.671 36.1328ZM121.606 31.2392C122.125 31.2392 122.654 31.1096 123.194 30.8504C123.735 30.5911 124.188 30.2022 124.556 29.6837C124.923 29.1652 125.106 28.5062 125.106 27.7068C125.106 27.0155 124.955 26.4106 124.653 25.892C124.35 25.3735 123.929 24.9738 123.389 24.693C122.87 24.3905 122.265 24.2393 121.574 24.2393C120.926 24.2393 120.343 24.3905 119.824 24.693C119.327 24.9954 118.917 25.4167 118.593 25.9568C118.29 26.4754 118.139 27.0695 118.139 27.7393C118.139 28.517 118.312 29.176 118.657 29.7161C119.025 30.2346 119.478 30.6235 120.019 30.8828C120.559 31.1204 121.088 31.2392 121.606 31.2392Z" fill="#063855"/>
<path fill-rule="evenodd" clip-rule="evenodd" d="M34.746 67.8216C53.0131 67.8216 67.8216 53.0131 67.8216 34.746C67.8216 16.4789 53.0131 1.67048 34.746 1.67048C16.4789 1.67048 1.67048 16.4789 1.67048 34.746C1.67048 53.0131 16.4789 67.8216 34.746 67.8216ZM34.746 69.492C53.9357 69.492 69.492 53.9357 69.492 34.746C69.492 15.5563 53.9357 0 34.746 0C15.5563 0 0 15.5563 0 34.746C0 53.9357 15.5563 69.492 34.746 69.492Z" fill="#063855"/>
<path d="M47.5227 15.8929C47.3289 15.4287 46.941 14.9005 46.6443 14.6969C45.9324 14.2085 45.5526 14.2057 44.7076 14.6826C43.3722 15.4363 42.1224 17.8146 41.7091 20.3877C41.5355 21.469 41.5394 21.7904 41.7283 21.9246C41.8597 22.0179 42.7309 22.1508 43.6643 22.2201C45.1855 22.3327 45.4684 22.4064 46.3895 22.9301C47.4512 23.5335 48.4725 23.7695 48.37 23.3876C48.3094 23.1625 47.3882 22.5893 45.3487 21.5079C43.9674 20.7757 43.9543 20.7413 44.5739 19.4617C44.7601 19.0769 44.8428 19.0261 44.9534 19.2283C45.0557 19.4155 45.1423 19.2907 45.2668 18.7767C45.3615 18.3861 45.5644 17.9388 45.718 17.7827C45.9644 17.5321 45.9729 17.6625 45.7896 18.9003C45.6653 19.739 45.6497 20.3065 45.7508 20.3138C46.0632 20.3365 47.3195 18.4912 47.5958 17.6041C47.8452 16.8027 47.8386 16.6503 47.5227 15.8929Z" fill="#063855"/>
<path d="M46.1351 26.6133C46.0138 25.9604 45.0058 24.8024 44.3447 24.5565C43.6175 24.2858 43.3858 24.4544 43.7132 25.0164C44.026 25.5538 43.841 26.0125 43.3263 25.9752C43.1178 25.9601 42.545 25.7078 42.0532 25.4148C41.5616 25.1218 41.1188 24.9157 41.0694 24.9571C40.9209 25.0815 41.1619 26.8883 41.4216 27.5968C41.6045 28.0961 41.7681 28.2657 42.0887 28.289C42.4639 28.3162 42.4873 28.3596 42.2886 28.6616C41.9296 29.2074 42.1608 29.2251 43.3837 28.7448C44.6892 28.2321 45.612 28.2309 47.1278 28.7404C48.6335 29.2464 48.912 29.2077 48.1199 28.6026C47.5786 28.189 47.24 28.0709 46.4195 28.0098C45.8559 27.9679 45.3975 27.8989 45.4006 27.8564C45.4037 27.8139 45.589 27.6179 45.8123 27.4209C46.1076 27.1604 46.1958 26.9398 46.1351 26.6133Z" fill="#063855"/>
<path d="M48.4792 25.9803C48.0731 26.1235 47.9047 26.079 47.2928 25.6664C46.49 25.1252 46.3912 25.2081 46.5457 26.2956C46.6385 26.9496 46.6982 27.006 47.8501 27.5254C48.5142 27.8248 49.3892 28.2303 49.7949 28.4266C50.2003 28.6229 50.5826 28.7418 50.644 28.6908C50.7995 28.562 50.2035 26.6953 49.8088 26.0747C49.5047 25.5966 48.9862 25.3485 48.9629 25.6697C48.9571 25.7486 48.7396 25.8884 48.4792 25.9803Z" fill="#063855"/>
<path d="M37.8565 26.3442C37.6027 26.0743 37.0848 25.686 36.7056 25.4813C35.7595 24.9706 35.0383 24.9507 34.183 25.4121C32.8293 26.1421 32.027 27.005 31.9699 27.7921L31.9388 28.2213L33.1465 27.7815C34.3044 27.3601 34.4186 27.3514 35.9175 27.5738L37.481 27.8057L38.3176 26.835L37.8565 26.3442Z" fill="#063855"/>
<path d="M40.0812 32.0921C40.8548 30.779 41.5558 29.4972 41.6387 29.2435C41.7216 28.9898 41.7379 28.7786 41.6748 28.774C41.279 28.7453 40.5293 29.402 40.0744 30.1762C39.4482 31.242 39.299 31.0589 39.7837 29.8195C39.9724 29.3374 40.1285 28.9183 40.1307 28.8882C40.1329 28.8584 39.9401 28.8198 39.7022 28.8026C39.4554 28.7847 39.1091 28.9401 38.8958 29.1647C38.4619 29.6215 37.8886 31.7701 37.9936 32.5458C38.0326 32.8343 37.9225 33.8166 37.7487 34.7287C37.565 35.6926 37.4899 36.5033 37.5691 36.6648C37.7464 37.0261 37.8462 36.8759 38.2986 35.5665C38.5053 34.9686 39.3074 33.4051 40.0812 32.0921Z" fill="#063855"/>
<path fill-rule="evenodd" clip-rule="evenodd" d="M36.9047 29.5095L35.9813 28.9757C34.2757 27.99 32.6403 28.3843 31.7006 30.0077C31.0343 31.1588 31.0361 31.5397 31.7093 32.0016C32.0144 32.2109 32.364 32.3895 32.4866 32.3988C32.8108 32.4233 32.7847 32.0649 32.4419 31.7854C32.2792 31.6529 32.2116 31.49 32.2919 31.4236C32.3721 31.3573 32.526 31.4007 32.634 31.5203C32.7434 31.6416 33.3455 31.778 33.9969 31.829C35.1584 31.92 35.161 31.9212 34.5669 32.1197C34.2387 32.2292 33.965 32.3912 33.9586 32.4797C33.9332 32.8293 34.5555 32.8825 35.314 32.5952C36.1726 32.2701 36.411 31.885 36.7429 30.2875L36.9047 29.5095ZM32.8081 30.0927C32.6971 29.7444 33.023 29.2377 33.4837 29.0421C33.9724 28.8346 34.495 28.8959 34.7115 29.1861C34.8558 29.3794 34.7375 29.467 34.1389 29.6096C33.7092 29.7119 33.3386 29.9186 33.2784 30.0892C33.148 30.4594 32.9254 30.4611 32.8081 30.0927Z" fill="#063855"/>
<path d="M30.8335 29.9295C31.0214 29.2999 31.1834 28.6889 31.1938 28.5715C31.2039 28.4543 31.1321 28.3525 31.0341 28.3454C30.9361 28.3382 30.8511 28.3978 30.8453 28.4778C30.8275 28.7235 28.888 30.7649 28.6863 30.7503C28.5819 30.7427 28.2733 30.4717 28.0007 30.1482C27.5242 29.5826 27.4944 29.5717 27.2327 29.8678C27.0828 30.037 26.937 30.4965 26.9085 30.8884C26.8485 31.7161 27.2422 32.3835 28.0096 32.7543C29.0829 33.2733 30.1559 32.2002 30.8335 29.9295Z" fill="#063855"/>
<path d="M39.3717 38.0138C39.6752 38.3502 42.4064 35.2723 42.8843 34.0552C42.9654 33.8487 42.9661 33.676 42.8858 33.6717C42.638 33.6584 41.6092 34.4806 40.8773 35.2772C40.1905 36.0247 39.2005 37.824 39.3717 38.0138Z" fill="#063855"/>
<path d="M38.4088 41.3754C38.667 41.6613 41.498 38.7834 42.6696 37.0441C43.079 36.4365 43.333 35.9333 43.2341 35.9262C42.7383 35.8902 42.3578 36.1984 41.4072 37.4055C40.8367 38.13 40.0399 39.0465 39.6362 39.4422C38.8847 40.1791 38.2423 41.1908 38.4088 41.3754Z" fill="#063855"/>
<path d="M41.0097 41.8367C41.8596 41.0688 43.7299 38.5386 43.7606 38.1154C43.7729 37.9463 42.8124 38.5405 42.238 39.0573C41.9622 39.3055 41.0391 40.3778 40.1869 41.44C38.8737 43.0767 38.5622 43.5911 38.1454 44.8114C37.8749 45.6035 37.6882 46.3157 37.7305 46.3943C37.876 46.6644 38.3371 46.1737 38.586 45.4838C39.0693 44.1431 39.9891 42.7591 41.0097 41.8367Z" fill="#063855"/>
<path d="M36.3386 47.5658C36.9351 46.0138 37.467 43.2922 37.636 40.9281C37.779 38.9278 37.766 38.7391 37.5058 39.0237C37.347 39.1976 37.0622 39.7564 36.8731 40.2655C36.6839 40.7745 36.3422 41.6797 36.1138 42.2769C35.5085 43.8601 34.9909 45.5224 35.0747 45.6151C35.1146 45.6594 35.3259 45.5621 35.5441 45.3989L35.9411 45.102L35.7224 46.4572C35.5517 47.5158 35.5555 47.8889 35.7393 48.1622C35.9596 48.4894 35.9984 48.4509 36.3386 47.5658Z" fill="#063855"/>
<path fill-rule="evenodd" clip-rule="evenodd" d="M11.0494 60.1574C11.1298 59.7118 11.2095 59.4049 11.297 59.1728C11.6309 58.2866 13.0492 55.3668 13.6653 54.2971C13.8219 54.0252 14.165 53.123 14.4277 52.2922C15.4787 48.9691 16.3944 47.3275 18.521 44.9542C19.7433 43.5901 19.9201 43.3044 20.1798 42.2731C20.5311 40.8777 20.3991 39.8945 19.7096 38.7706C19.1405 37.8427 18.641 37.4635 17.5797 37.1537C15.8037 36.6353 15.3941 36.1614 14.1791 33.2173C13.7371 32.1465 13.0867 30.7087 12.7338 30.0221C11.6464 27.9067 10.8938 25.7941 10.2672 23.0979C9.85136 21.3083 10.149 18.6034 10.9088 17.267C11.8308 15.645 12.1994 15.5521 14.5866 16.3389C16.2961 16.9023 17.6213 17.6046 20.5429 19.4958C21.8273 20.3273 23.8484 21.5632 25.0341 22.2426L27.1902 23.4777L28.9331 22.823C31.7759 21.755 32.744 21.5797 35.4926 21.6355C37.5423 21.677 38.0819 21.629 38.8282 21.3385C39.7115 20.9947 39.7214 20.9824 40.116 19.7333C41.0501 16.7769 42.171 14.8116 43.5891 13.6431C44.8038 12.6425 46.2314 12.3611 47.3762 12.8971C49.3477 13.8197 50.4751 16.3049 50.6948 20.2124C50.8419 22.8251 51.0037 23.1397 53.1892 25.0556C54.1587 25.9056 54.4547 26.5932 54.4658 28.0205C54.4739 29.0797 54.6487 29.7508 55.5954 32.3592C56.2114 34.0564 56.8741 35.8427 57.0681 36.3289C57.2622 36.8152 57.5298 37.9311 57.663 38.809C57.8237 39.8676 58.1179 40.8478 58.5365 41.7197C59.4942 43.7143 59.194 44.968 57.5744 45.7379C55.9542 46.508 55.4971 46.8303 55.2691 47.3634C55.1392 47.6674 54.7279 48.2466 54.3552 48.6504L53.6778 49.3849L54.0453 49.9666C54.2476 50.2867 54.5101 50.6642 54.6286 50.8057C54.7473 50.947 55.3322 52.1505 55.9284 53.4799C56.5247 54.8092 57.3532 56.6169 57.7694 57.497C58.1327 58.2651 58.4552 59.0882 58.7184 59.8956C58.1282 60.4584 57.5182 61.0006 56.8895 61.5211C56.8336 61.0839 56.7122 60.6591 56.4966 59.9799C56.0804 58.6689 55.9794 58.4853 55.9073 58.907C55.6497 60.4124 54.991 62.2502 54.2839 63.4364C54.2689 63.4615 54.2539 63.4865 54.2388 63.5113C52.3542 64.7909 50.3372 65.8902 48.2126 66.7843C46.7086 66.696 46.4778 66.7378 45.3197 67.1983C44.6114 67.4798 43.7158 67.9175 43.3297 68.1709C42.9435 68.4242 42.2467 68.6947 41.7811 68.7719C41.4994 68.8186 41.2562 68.867 41.0443 68.9211C40.0253 69.1077 38.9907 69.2499 37.9426 69.3455C38.0237 69.0872 38.1373 68.9462 38.3067 68.8743C38.7506 68.6858 39.0282 67.7146 38.7861 67.1962C38.6199 66.8401 38.5141 66.8098 37.5694 66.846C36.5494 66.8851 34.4906 66.483 34.4202 66.2308C34.4003 66.1595 34.2432 65.8401 34.0713 65.5207C33.7234 64.8748 33.0953 64.7049 32.5929 65.1209C32.2323 65.4197 31.6415 66.8861 31.5887 67.6137C31.5674 67.9074 31.653 68.3052 31.7788 68.4977C31.9886 68.8184 32.0586 68.831 32.6186 68.6508C33.4194 68.393 34.0311 68.4511 34.9704 68.8743C35.3956 69.0659 35.6184 69.2179 35.7778 69.4756C35.4348 69.4856 35.0906 69.4907 34.7451 69.4907C33.1499 69.4907 31.5798 69.3832 30.0417 69.175C29.9793 68.9419 29.9646 68.5981 29.9758 68.0352L30.0005 66.7815L27.7892 65.2902C26.5729 64.4698 24.9575 63.2369 24.1994 62.5502C23.4413 61.8636 22.4869 61.1317 22.0785 60.9237C21.7393 60.7509 21.5417 60.6612 21.3975 60.5178C21.1684 60.2901 21.0737 59.9272 20.7603 58.8818C20.5373 58.138 20.0811 56.7658 19.7465 55.8326C18.8723 53.3938 18.7181 52.3923 18.7946 49.6475C18.832 48.3047 18.7961 47.2011 18.7147 47.1952C18.6333 47.1893 18.3164 47.5718 18.0103 48.0454C17.4957 48.8413 17.4447 49.0486 17.3342 50.7863C17.2327 52.3826 17.2796 52.9285 17.6453 54.4063C17.8824 55.3635 18.0472 56.1705 18.012 56.1997C17.8082 56.3686 16.647 55.3125 16.3844 54.7193C16.2142 54.3349 15.9768 54.0437 15.8569 54.0724C15.6197 54.1294 13.8341 57.7407 13.3209 59.2014C13.1561 59.6706 13.0551 60.2955 12.9522 61.8082C12.298 61.2808 11.6633 60.7301 11.0494 60.1574ZM41.6521 19.2003C42.105 17.3472 42.9577 15.886 44.1739 14.8788C45.0243 14.1744 45.2121 14.0943 45.8942 14.1448C47.315 14.25 48.3898 15.4495 49.0961 17.7176C49.4693 18.9164 49.7843 21.7555 49.6893 23.0644C49.6401 23.7426 49.6972 23.8591 50.3136 24.3361C50.6867 24.625 50.988 24.9169 50.9831 24.985C50.9781 25.053 51.4348 25.3878 51.9978 25.7289C52.5608 26.07 53.0638 26.4264 53.1153 26.5208C53.254 26.7744 52.9685 26.7 52.5939 26.3845C52.1274 25.9919 51.7469 26.0096 51.1716 26.4503C50.4055 27.0373 50.4591 27.6117 51.3704 28.5792C51.994 29.2411 52.2361 29.3879 52.6573 29.3594C53.0943 29.33 53.1719 29.3836 53.149 29.6983C53.1272 29.9999 53.041 30.051 52.7029 29.9633C52.0421 29.7921 51.9639 30.1643 52.5148 30.8606C52.7932 31.2127 53.2213 31.9561 53.4661 32.5126C53.7111 33.0693 54.3699 34.2931 54.9302 35.2322C55.4905 36.1712 56.0238 37.1756 56.1153 37.4642C56.4523 38.5259 57.2415 41.8376 57.1724 41.8994C57.1331 41.9347 56.9239 41.4946 56.7074 40.9214C55.3482 37.3251 55.1689 37.0036 54.2021 36.4307L53.7048 36.1363L53.8521 37.2349L53.1599 36.5778C52.7792 36.2162 51.9282 35.6717 51.2686 35.3676C50.3516 34.9448 49.9509 34.6415 49.5657 34.0796C49.2885 33.6753 48.7434 32.9737 48.354 32.5206C47.9649 32.0674 47.5422 31.3801 47.4148 30.9931L47.1829 30.2896L47.5225 30.7279C47.709 30.969 47.9208 31.2867 47.9929 31.4337C48.107 31.666 48.2692 31.6824 49.2307 31.5584C49.8394 31.4799 50.3402 31.377 50.3436 31.3299C50.3599 31.1045 49.7006 30.74 49.202 30.6991C48.8958 30.6738 48.5474 30.5221 48.4279 30.362C48.1195 29.9489 47.4022 29.6529 47.1716 29.8439C47.0686 29.9291 46.7496 29.9362 46.4627 29.8593C45.9768 29.7291 45.9482 29.7481 46.0466 30.1374C46.1426 30.5178 46.126 30.5315 45.8633 30.2893C45.6129 30.0587 45.5503 30.0544 45.3947 30.2567C45.2958 30.3851 45.2081 30.5691 45.1995 30.6659C45.191 30.7624 44.7691 30.9626 44.2618 31.1103C43.4436 31.3488 43.3726 31.406 43.6326 31.6177C43.7936 31.7488 44.2514 31.8687 44.6502 31.8839C45.0489 31.8993 45.6425 31.9892 45.9691 32.0842C46.5388 32.2495 46.5598 32.2385 46.4818 31.8185C46.4371 31.5777 46.3602 31.2547 46.3112 31.1007C46.1581 30.6202 46.5574 30.8185 47.0844 31.4847C47.6134 32.1535 48.2273 34.2502 48.1629 35.1678C48.1394 35.5007 47.8659 35.9621 47.3821 36.4846C46.3952 37.5503 45.972 38.373 45.1782 40.7683C44.1636 43.8293 43.6088 44.5805 41.2264 46.1195C38.4249 47.9292 37.63 48.6029 37.5829 49.208C37.5626 49.4685 39.1002 49.6128 39.7942 49.4156C40.5533 49.1998 40.3228 49.5621 39.4357 49.979C38.1783 50.5698 37.3498 50.3765 35.5485 49.0717C34.6888 48.4489 34.3992 48.3331 33.5452 48.2712C32.9964 48.2314 32.2921 48.1083 31.9806 47.998C30.521 47.4806 32.1395 49.2645 33.8953 50.1084C34.5695 50.4323 35.0926 50.7209 35.0579 50.7497C34.9464 50.8422 32.2972 49.7098 31.1423 49.0761C30.0412 48.4719 28.9579 47.4108 27.3172 45.3291C26.8897 44.7868 26.5608 44.5032 26.5024 44.6265C26.215 45.235 27.7701 49.0203 28.9031 50.4703C29.4776 51.2055 31.9766 53.3192 33.3851 54.2615C33.8662 54.5834 34.5277 54.9099 34.8551 54.9872C36.1991 55.3045 36.222 55.3197 36.3642 55.9883C36.4405 56.3471 36.4851 57.0258 36.4632 57.4963C36.4412 57.9668 36.4576 58.5825 36.4995 58.8643L36.5757 59.377L36.8958 58.9748C37.0718 58.7538 37.4267 58.1812 37.6846 57.7027C37.9425 57.2242 38.2954 56.7724 38.4688 56.6988C38.6424 56.6252 38.9524 56.2066 39.1581 55.7684C39.3636 55.3305 39.8523 54.7188 40.2437 54.4094C40.6354 54.1001 41.2141 53.4859 41.5299 53.0446C42.5113 51.6736 42.2871 52.7067 41.236 54.3993C40.3581 55.8131 40.2703 56.0504 40.046 57.6136L39.8041 59.3015L37.9607 61.0901L37.1079 60.8075C35.7898 60.3705 34.4877 59.6142 33.6609 58.8052C33.2469 58.4 32.3312 57.6891 31.6259 57.2254C29.015 55.5083 27.8962 54.2818 26.5166 51.6241C25.3216 49.3222 23.9835 43.4028 23.8334 39.755C23.7827 38.5237 23.6052 37.0517 23.439 36.4836C23.2262 35.757 23.1662 35.0402 23.2363 34.0653C23.3333 32.7157 23.3282 32.694 23.0416 33.228C22.6056 34.0396 22.0914 35.5815 22.0272 36.2692C21.981 36.7619 21.947 36.808 21.8423 36.5202C21.6007 35.8561 21.782 34.8881 22.4467 33.2933C22.8126 32.4156 23.3245 30.864 23.5842 29.845C23.8466 28.8152 24.2876 27.5985 24.5771 27.1057C25.5371 25.4705 25.3456 24.7982 23.5327 23.4391C22.4657 22.6393 22.499 22.5761 23.6278 23.2584C24.0716 23.5267 24.5631 23.7555 24.72 23.767C25.1388 23.7974 26.7809 24.561 27.618 25.1143C28.2908 25.5592 28.3836 25.579 28.8642 25.3814C29.1499 25.2639 29.5992 24.9753 29.8625 24.74C30.9904 23.732 33.4316 23.1494 36.4709 23.163C38.2785 23.1711 38.9736 23.0347 39.8543 22.4991C40.6654 22.0058 41.2109 21.0048 41.6521 19.2003ZM11.2293 21.6435C10.9991 21.4836 11.3642 19.1225 11.7499 18.2762L12.053 17.6115L13.3753 17.6647C14.6115 17.7145 16.2793 18.2259 17.2327 18.8478C17.9832 19.3373 21.1286 21.6672 21.124 21.7304C21.121 21.7717 20.6136 21.4858 19.9964 21.0951C19.3793 20.7044 18.8265 20.4243 18.768 20.4725C18.6116 20.6023 19.2673 21.5735 20.5449 23.1041C21.6627 24.4435 22.4451 25.8813 22.177 26.1034C22.1007 26.1667 21.7706 26.0546 21.4437 25.8546C21.1166 25.6547 20.8124 25.5214 20.7674 25.5585C20.7226 25.5958 20.879 26.1683 21.1152 26.8312C21.8064 28.7711 21.8616 29.5988 21.4094 31.2464C20.9608 32.8808 20.6256 33.4814 19.9662 33.8315C19.3264 34.1714 19.0471 34.0017 16.9475 31.9976C14.9272 30.0691 14.0718 29.0695 13.2475 27.6737C12.5972 26.5725 12.6634 26.0767 13.3334 27.0304C13.5612 27.3548 14.2889 28.0993 14.9504 28.6848C15.612 29.2704 16.3364 29.9957 16.5602 30.2968C17.5182 31.5861 18.6033 32.7657 18.8474 32.7834C19.0613 32.7989 19.0726 32.7515 18.907 32.5299C18.7841 32.365 18.762 32.052 18.8513 31.7392C18.9751 31.3055 18.8964 31.0837 18.3671 30.374C17.6075 29.3556 17.5165 29.1596 17.0636 27.5678C16.8697 26.8856 16.3898 25.6285 15.9971 24.7743C15.384 23.4396 15.2937 23.08 15.356 22.2206C15.3959 21.6705 15.5403 21.0236 15.6767 20.7832C15.8979 20.3936 15.9988 20.3612 16.6073 20.4847C17.1667 20.5983 17.2746 20.5752 17.205 20.3569C16.8535 19.2536 15.4071 18.2492 13.8703 18.0415L12.8922 17.9093L12.32 18.9511C12.0054 19.5242 11.6695 20.3909 11.5737 20.8773C11.4707 21.4 11.3299 21.7134 11.2293 21.6435ZM16.3196 34.8298C16.0434 34.5754 15.5295 33.3376 15.4202 32.6635C15.3775 32.4007 15.4158 32.1911 15.5049 32.1975C15.8137 32.2199 17.3619 34.0784 17.3387 34.3988C17.3071 34.8338 16.6335 35.1189 16.3196 34.8298ZM46.1537 43.4407C46.1504 40.6572 47.3548 37.4465 48.7043 36.6405C49.2226 36.3309 50.0645 36.2282 50.6021 36.409C50.8801 36.5025 52.5683 37.6755 53.5004 38.423C53.602 38.5046 53.5293 38.6416 53.3179 38.7681C53.0288 38.9409 52.9821 39.0974 53.0535 39.6569C53.2495 41.1954 53.0137 42.6747 52.2926 44.4291C51.9084 45.3644 51.502 46.1753 51.3897 46.2312C51.0214 46.4148 50.9051 45.8575 51.0923 44.8056C51.2676 43.821 51.2564 43.7648 50.8614 43.6322C50.6332 43.5557 50.0395 43.4625 49.542 43.4252C48.2573 43.3286 48.0153 43.6117 46.9288 46.4808C46.4271 47.8057 45.7028 49.3704 45.319 49.9581C44.9355 50.5457 44.6484 51.0564 44.6814 51.0928C44.7538 51.1731 47.9444 49.0506 48.4184 48.6069C48.7301 48.315 48.7531 48.3146 48.7323 48.6C48.6958 49.1041 47.6605 50.625 46.8321 51.3919C46.0555 52.1105 45.6739 52.2133 43.9046 52.1797C43.3084 52.1684 43.4319 51.5279 44.3136 50.0561C45.4397 48.177 46.1563 45.6007 46.1537 43.4407ZM54.3579 45.1346C54.3647 45.0405 54.5999 44.5964 54.8804 44.1479C55.1609 43.6992 55.4492 43.3369 55.521 43.343C55.6868 43.3565 56.4092 44.7836 56.2974 44.8763C56.2516 44.9143 56.1212 44.8207 56.0075 44.6686C55.7105 44.2709 55.4089 44.3021 55.1065 44.7617C54.8301 45.1822 54.3366 45.428 54.3579 45.1346ZM19.9479 50.2916C19.8152 48.7249 20.0138 47.3997 20.7307 45.0667C21.0076 44.1662 21.2881 43.4332 21.3544 43.438C21.4205 43.4428 21.6284 44.2883 21.8162 45.3171C22.2255 47.5581 22.5639 48.6045 23.5647 50.7232C24.2669 52.21 24.3022 52.3583 24.0618 52.8195C23.9197 53.0925 23.748 53.5822 23.6803 53.9078C23.6124 54.2334 23.3103 55.0863 23.0086 55.8032L22.4601 57.1067L22.0448 56.6775C21.1983 55.8028 20.1422 52.5866 19.9479 50.2916ZM24.3018 55.5839C24.3896 55.2125 24.5206 54.7006 24.5928 54.4461C24.7356 53.9426 24.9676 53.9157 25.8522 54.3004C26.3375 54.5116 26.9922 55.0558 28.0953 56.165C28.7162 56.7895 28.1696 56.7284 27.2564 56.0712C26.217 55.3233 25.9105 55.3061 25.5437 55.9744C25.1201 56.746 24.1302 59.3069 24.1012 59.7059C24.0877 59.892 24.4502 60.4518 24.9067 60.95C25.3631 61.4482 25.7321 61.9182 25.7266 61.9946C25.7084 62.2443 24.6176 61.4966 23.7666 60.6509C23.3085 60.1959 22.7569 59.744 22.5407 59.6471C21.9852 59.3977 22.0819 58.835 22.7251 58.5723C23.3644 58.3112 23.8938 57.308 24.3018 55.5839ZM25.7491 60.2761C25.0099 59.5836 24.9002 58.0791 25.5071 56.9602C25.7571 56.4993 25.9749 56.307 26.2248 56.3272C26.4221 56.3431 27.272 56.8654 28.1136 57.4875C28.9552 58.1098 29.7437 58.6292 29.8661 58.6418C30.1251 58.6687 30.1104 59.3353 29.8389 59.8833C29.735 60.0926 29.4738 60.7354 29.2582 61.3113C28.9107 62.2395 28.8249 62.3435 28.502 62.226C28.1154 62.0853 26.3315 60.8217 25.7491 60.2761ZM29.84 63.8083C29.4864 63.129 29.5802 62.0982 30.1211 60.7188C30.6983 59.2468 31.0385 58.9331 31.8461 59.1283C32.185 59.2102 32.4417 59.3506 32.4166 59.4401C32.3914 59.5296 31.9814 60.4632 31.5051 61.5145C31.029 62.5659 30.6213 63.6734 30.5992 63.9758C30.5505 64.6374 30.2354 64.568 29.84 63.8083ZM31.9542 63.3759C32.0452 62.9583 32.2883 62.0818 32.4943 61.4282C32.9082 60.1151 32.9311 60.1041 34.2138 60.5915C36.1318 61.3202 37.0113 62.7481 36.3068 63.9892C35.9217 64.6679 35.2 64.7879 34.0802 64.3597C33.4443 64.1167 32.8997 64.0177 32.4562 64.0647L31.7888 64.1353L31.9542 63.3759ZM39.1968 62.2614C40.343 62.3156 42.3436 61.9548 43.0466 61.5668C43.4136 61.3642 43.7506 61.2012 43.7952 61.2044C44.0086 61.2199 43.774 61.7356 43.0821 62.7716C42.4134 63.7728 42.1901 63.965 41.1872 64.403C40.3293 64.7775 39.7505 64.9017 38.8283 64.909L37.6062 64.9186L37.6976 63.659C37.7995 62.2553 37.8608 62.1981 39.1968 62.2614Z" fill="#063855"/>
</svg>
