<svg width="30" height="30" viewBox="0 0 30 30" fill="none" xmlns="http://www.w3.org/2000/svg">
<path d="M22.7858 18.4146C21.9122 18.2634 21.0569 18.0209 20.2338 17.6913C19.8277 17.5265 19.3692 17.5518 18.9837 17.7602C18.6015 17.9677 18.3341 18.3374 18.2569 18.7654C18.2263 19.0592 18.0581 19.321 17.8036 19.4711C17.5641 19.553 17.2999 19.5156 17.0925 19.3703C14.7746 18.0133 12.8444 16.0833 11.4872 13.7655C11.3416 13.5583 11.304 13.2937 11.3861 13.0541C11.5365 12.8001 11.7983 12.6322 12.0918 12.6016C12.5214 12.5217 12.8918 12.2522 13.1003 11.8683C13.3087 11.4845 13.333 11.0271 13.1662 10.6233C12.8364 9.80042 12.5939 8.94516 12.4426 8.07169C12.3858 7.70911 12.1924 7.38206 11.9022 7.15756C11.612 6.93306 11.2469 6.82799 10.8818 6.86418L9.01522 7.041V7.04084C8.33534 7.10462 7.71554 7.45731 7.31344 8.00934C6.9113 8.56133 6.76573 9.2594 6.91369 9.92604C7.68509 13.3492 9.41178 16.4831 11.8932 18.9644C14.3744 21.4456 17.5087 23.1724 20.9318 23.9439C21.6019 24.092 22.3034 23.944 22.8565 23.5376C23.4096 23.1313 23.7604 22.5061 23.8191 21.8223L23.9933 19.9765C24.0286 19.6114 23.9233 19.2466 23.699 18.9564C23.4746 18.6662 23.1481 18.4725 22.7858 18.4146L22.7858 18.4146Z" fill="#C8E8FF"/>
</svg>
