<svg width="30" height="30" viewBox="0 0 30 30" fill="none" xmlns="http://www.w3.org/2000/svg">
<path d="M23.6456 21.6058L18.2912 16.3613C18.9177 15.3721 19.2483 14.23 19.2483 13.0534C19.2483 9.63737 16.4687 6.85718 13.0527 6.85718C9.63673 6.8573 6.85715 9.63691 6.85715 13.0534C6.85715 16.4694 9.63676 19.2484 13.0527 19.2484C14.3577 19.2484 15.6067 18.8437 16.6696 18.0766L21.9939 23.2926C22.2158 23.5101 22.5086 23.6301 22.82 23.6301C23.14 23.6301 23.44 23.5037 23.6638 23.275C24.1189 22.8101 24.1111 22.0614 23.6457 21.6057L23.6456 21.6058ZM13.0529 17.5359C10.5814 17.5359 8.57063 15.5249 8.57063 13.0534C8.57063 10.5819 10.5814 8.57115 13.0529 8.57115C15.5244 8.57115 17.5348 10.5819 17.5348 13.0534C17.5348 14.2174 17.0913 15.3201 16.2848 16.159C15.4312 17.047 14.2833 17.5358 13.0531 17.5358L13.0529 17.5359Z" fill="white"/>
</svg>
